<?xml version="1.0" encoding="UTF-8"?>
<svg id="Capa_1" data-name="Capa 1" xmlns="http://www.w3.org/2000/svg" viewBox="0 0 24 24">
  <defs>
    <style>
      .cls-1 {
        fill: #fff;
      }

      .cls-2 {
        fill: #4da2ff;
      }
    </style>
  </defs>
  <circle class="cls-2" cx="12" cy="12" r="11.72"/>
  <path class="cls-1" d="M12.01,3.31c.09.02.15.06.2.13,1.62,2.04,3.33,4.01,4.95,6.05.71.9,1.21,1.79,1.46,2.92.88,3.94-1.83,7.74-5.8,8.23l-.63.06c-.13,0-.25,0-.38,0-3.55-.16-6.41-2.87-6.59-6.45-.09-1.75.45-3.29,1.52-4.65,1.63-2.08,3.39-4.07,5.03-6.14.05-.07.13-.13.22-.14h.03ZM11.93,5.76c-.07.01-.13.05-.18.09-.42.54-.91,1.02-1.22,1.65-.49,1.01-.66,2.26-.14,3.29.69,1.38,2.06,1.82,3.21,2.7.98.75,1.83,1.72,2.21,2.92l.18.73c.52-.61.9-1.36,1.08-2.15.36-1.55.01-3.12-.94-4.38l-3.85-4.71c-.1-.11-.19-.17-.35-.15ZM14.31,18.46c.11-.91-.11-1.79-.64-2.53-.68-.94-1.53-1.39-2.48-1.99-1.4-.88-2.48-2.07-2.77-3.75,0-.03-.02-.21-.04-.21-.32.39-.65.77-.91,1.21-2.12,3.68.81,8.15,5.01,7.78.63-.05,1.26-.25,1.83-.52Z"/>
</svg>